<?xml version="1.0" standalone="no"?>
<!DOCTYPE svg PUBLIC "-//W3C//DTD SVG 20010904//EN"
 "http://www.w3.org/TR/2001/REC-SVG-20010904/DTD/svg10.dtd">
<svg version="1.0" xmlns="http://www.w3.org/2000/svg"
 width="400.000000pt" height="400.000000pt" viewBox="0 0 400.000000 400.000000"
 preserveAspectRatio="xMidYMid meet">
<metadata>
Created by potrace 1.11, written by Peter Selinger 2001-2013
</metadata>
<g transform="translate(0.000000,400.000000) scale(0.100000,-0.100000)"
fill="#000000" stroke="none">
<path d="M0 2165 l0 -1834 68 -3 67 -3 3 -92 3 -92 -68 -3 -68 -3 -3 -67 -3
-68 2001 0 2000 0 0 2000 0 2000 -2000 0 -2000 0 0 -1835z m2090 1683 c25 -13
59 -42 77 -66 l33 -44 0 -407 0 -407 -26 -40 c-43 -67 -86 -89 -169 -89 -92 0
-140 29 -179 106 l-26 53 0 366 c0 397 3 423 55 483 32 36 100 67 150 67 23 0
61 -10 85 -22z m66 -1338 c213 -57 363 -254 364 -475 0 -146 -34 -240 -121
-338 -110 -124 -220 -172 -389 -171 -185 0 -315 70 -409 219 -153 242 -94 531
143 700 113 81 264 104 412 65z m-948 -442 c16 -16 16 -90 0 -106 -7 -7 -31
-12 -55 -12 -34 0 -46 5 -59 25 -17 26 -13 67 8 92 13 16 90 17 106 1z m-707
-1610 c69 -23 100 -82 85 -160 -8 -42 -57 -77 -123 -86 -47 -7 -48 -8 -51 -44
-4 -42 -23 -62 -50 -53 -28 8 -32 32 -32 180 0 162 6 175 84 175 29 0 68 -5
87 -12z m290 1 c52 -18 81 -54 87 -108 3 -37 0 -52 -18 -74 -13 -16 -32 -32
-43 -36 -18 -7 -17 -10 17 -30 39 -25 55 -63 36 -86 -19 -23 -33 -19 -101 36
l-64 51 -3 -40 c-4 -51 -23 -69 -57 -54 l-25 12 0 154 c0 182 2 186 84 186 29
0 68 -5 87 -11z m365 -4 c34 -14 65 -44 91 -89 17 -29 16 -125 -2 -160 -26
-50 -97 -94 -155 -95 -114 -3 -206 108 -181 220 8 36 18 53 56 95 39 42 127
56 191 29z m395 -8 c23 -16 34 -31 34 -47 0 -23 -3 -25 -40 -22 -112 8 -123 7
-149 -17 -35 -33 -36 -98 -3 -136 41 -49 137 -44 137 6 0 15 -8 19 -40 19 -46
0 -67 24 -45 53 9 13 27 17 77 17 82 0 92 -10 86 -86 -6 -72 -41 -111 -108
-120 -97 -13 -182 40 -209 131 -23 79 16 166 94 208 46 25 125 22 166 -6z
m261 11 c51 -15 88 -62 88 -112 0 -47 -23 -93 -52 -102 -21 -6 -20 -8 17 -40
41 -35 55 -41 55 -25 0 10 34 87 96 219 48 100 75 97 124 -13 12 -27 40 -87
61 -133 44 -94 47 -117 19 -132 -25 -13 -56 1 -65 30 -6 18 -15 20 -80 20 -66
0 -74 -2 -80 -21 -9 -28 -45 -40 -70 -24 -17 10 -23 10 -33 -1 -20 -22 -33
-17 -100 37 -45 36 -64 46 -68 36 -3 -8 -4 -18 -3 -23 8 -45 -17 -72 -55 -58
-14 5 -16 27 -16 168 0 113 4 166 12 174 15 15 99 15 150 0z m575 0 c6 -7 16
-31 23 -53 25 -77 48 -121 54 -102 3 9 9 25 13 35 3 9 14 39 22 66 9 27 24 54
34 60 35 22 50 -5 89 -155 20 -79 37 -152 37 -161 1 -23 -34 -42 -56 -30 -16
9 -53 109 -53 145 0 39 -17 12 -39 -62 -37 -123 -71 -120 -111 11 l-26 83 -12
-50 c-7 -27 -17 -66 -23 -86 -10 -41 -31 -54 -60 -39 -24 13 -24 45 1 135 11
39 20 78 20 87 0 10 9 42 21 73 21 56 44 71 66 43z m475 -5 c9 -10 32 -54 53
-98 20 -44 48 -103 61 -131 29 -62 30 -90 5 -104 -26 -13 -50 -3 -62 26 -8 22
-14 24 -83 24 -67 0 -75 -2 -81 -21 -12 -38 -85 -43 -85 -5 0 11 62 160 102
246 21 44 49 80 62 80 7 0 20 -8 28 -17z m305 -83 c43 -54 81 -99 86 -100 4 0
7 38 7 84 0 46 3 91 6 100 9 22 51 20 64 -3 5 -11 10 -84 10 -165 0 -118 -3
-147 -16 -160 -29 -29 -51 -18 -99 49 -20 28 -106 135 -109 135 -1 0 -3 -39
-4 -87 -4 -103 -16 -125 -57 -103 l-25 13 0 154 c0 223 18 234 137 83z m288
81 c3 -10 7 -82 8 -160 2 -107 0 -147 -11 -162 -16 -23 -35 -24 -56 -3 -13 13
-16 42 -16 165 0 106 4 154 13 164 18 21 55 18 62 -4z m217 2 c9 -10 27 -43
41 -73 13 -30 39 -86 56 -124 44 -95 48 -121 23 -135 -27 -14 -47 -6 -60 25
-11 22 -17 24 -85 24 -69 0 -75 -2 -85 -25 -9 -18 -19 -25 -41 -25 -55 0 -51
25 30 198 21 45 39 86 39 91 0 15 41 61 54 61 7 0 20 -8 28 -17z"/>
<path d="M419 388 c-6 -22 -8 -68 -4 -85 6 -26 30 -29 70 -11 19 9 25 19 25
45 0 27 -5 35 -26 43 -23 9 -63 14 -65 8z"/>
<path d="M700 335 c0 -61 7 -65 69 -44 26 9 31 16 31 45 0 38 -21 54 -69 54
-31 0 -31 0 -31 -55z"/>
<path d="M1727 383 c-6 -11 0 -94 7 -101 3 -3 24 0 46 7 51 15 66 54 30 83
-22 18 -75 25 -83 11z"/>
<path d="M2060 315 c-25 -66 -24 -72 15 -73 34 -1 37 0 31 23 -10 38 -25 75
-31 75 -3 0 -10 -11 -15 -25z"/>
<path d="M2818 304 c-27 -52 -24 -64 17 -64 23 0 35 5 35 14 0 13 -28 86 -33
86 -1 0 -10 -16 -19 -36z"/>
<path d="M3631 316 c-22 -56 -19 -70 17 -72 37 -1 39 6 13 61 l-19 40 -11 -29z"/>
</g>
</svg>
